# xmcd CD database file
#
# Track frame offsets:
#	182
#	14685
#	28210
#	49857
#	62462
#	86717
#
# Disc length: 2303 seconds
#
# Revision: 0
# Processed by: cddbd v1.4PL0 Copyright (c) Steve Scherf et al.
# Submitted via: Feurio! 1.65 - http://www.feurio.com
#
DISCID=4b08fd06
DTITLE=Tony McPhee - The Two Sides Of Tony (T.S.) McPhee
DYEAR=1973
DGENRE=Blues
TTITLE0=Three Times Seven
TTITLE1=All My Money, Alimony
TTITLE2=Morning's Eye
TTITLE3=Dog Me, Bitch
TTITLE4=Take It Out
TTITLE5=The Hunt
EXTD=ARD Charly Records  CLACD 267 1973 Heat Records
EXTT0=
EXTT1=
EXTT2=
EXTT3=
EXTT4=
EXTT5=
PLAYORDER=
